PathFileType  4	(X/Y/Z) C:\Users\antoi\Documents\MyRepositories\mobilecap\ResultsAnalysis
DataRate	CameraRate	NumFrames	NumMarkers	Units	OrigDataRate	OrigDataStartFrame	OrigNumFrames
100.0	100.0	4	51	mm	100.0	39	153
Frame#	Time	r_knee			r_shank_antsup			r_ankle			r_calc			r_5meta			r_toe			L_knee			L_shank_antsup			L_ankle			L_calc			L_5meta			L_toe			r_sh2			r_sh3			r_sh4			L_sh2			L_sh3			r_thigh1			r_thigh2			r_thigh3			r_thigh4			r_thigh5			L_thigh1			L_thigh2			L_thigh3			L_thigh4			r.ASIS			r.PSIS			L.ASIS			L.PSIS			C7			R_Shoulder			L_Shoulder			R_Sternum			L_Sternum			R_humerus			R_elbow_med			R_elbow_lat			R_forearm			R_wrist_radius			R_wrist_ulna			L_humerus			L_elbow_med			L_elbow_lat			L_forearm			L_wrist_radius			L_wrist_ulna			R_HJC			L_HJC			R_HJC_reg			L_HJC_reg			
		X1	Y1	Z1	X2	Y2	Z2	X3	Y3	Z3	X4	Y4	Z4	X5	Y5	Z5	X6	Y6	Z6	X7	Y7	Z7	X8	Y8	Z8	X9	Y9	Z9	X10	Y10	Z10	X11	Y11	Z11	X12	Y12	Z12	X13	Y13	Z13	X14	Y14	Z14	X15	Y15	Z15	X16	Y16	Z16	X17	Y17	Z17	X18	Y18	Z18	X19	Y19	Z19	X20	Y20	Z20	X21	Y21	Z21	X22	Y22	Z22	X23	Y23	Z23	X24	Y24	Z24	X25	Y25	Z25	X26	Y26	Z26	X27	Y27	Z27	X28	Y28	Z28	X29	Y29	Z29	X30	Y30	Z30	X31	Y31	Z31	X32	Y32	Z32	X33	Y33	Z33	X34	Y34	Z34	X35	Y35	Z35	X36	Y36	Z36	X37	Y37	Z37	X38	Y38	Z38	X39	Y39	Z39	X40	Y40	Z40	X41	Y41	Z41	X42	Y42	Z42	X43	Y43	Z43	X44	Y44	Z44	X45	Y45	Z45	X46	Y46	Z46	X47	Y47	Z47	X48	Y48	Z48	X49	Y49	Z49	X50	Y50	Z50	X51	Y51	Z51	

39	0.38000000	364.75454	601.20445	-73.91544	372.98843	447.99196	-89.67398	265.33246	98.55497	-125.56942	212.66744	77.81200	-192.47795	401.17404	37.97259	-94.49247	444.12328	62.94268	-142.49747	571.87619	648.16794	-379.00382	608.34141	449.14855	-364.05660	496.32397	156.36612	-347.94041	448.05064	133.24161	-272.82702	614.43663	57.50740	-405.16097	669.43946	86.89293	-358.47751	357.24968	337.24528	-105.66220	308.18113	449.16246	-49.37442	288.33415	337.73737	-57.54727	532.97456	464.98649	-406.32439	512.92001	350.54875	-387.75854	422.37415	888.44745	-25.24545	433.20430	777.32201	-35.32828	370.40995	749.71576	-28.64010	309.01859	882.40842	-44.83843	317.82381	766.88022	-46.01999	519.85541	940.80090	-381.36767	574.31995	818.33335	-382.36255	418.58939	902.09237	-391.64644	474.46290	777.23693	-396.46798	474.62391	1174.19613	-65.58850	279.28133	1203.37434	-140.59553	444.02538	1177.24320	-342.41515	269.32040	1203.88519	-233.15898	325.85928	1693.34437	-165.16215	405.50676	1634.15683	-0.72713	374.35985	1676.07542	-347.80474	468.91742	1604.68609	-153.07348	465.93257	1610.54314	-209.52294	380.80821	1364.12535	65.44529	282.49925	1253.91550	32.67723	297.65505	1275.11520	104.87740	425.76892	1100.35169	114.21988	478.53548	1019.81868	104.43972	450.16097	1010.29580	131.04733	360.96469	1384.05193	-422.86648	271.07991	1310.24849	-371.95866	288.91601	1308.58737	-447.46541	389.90520	1127.83294	-478.72907	428.60180	1057.48793	-472.51676	403.32357	1054.33114	-495.58301	394.61318	1078.03190	-100.88159	369.56440	1083.33405	-296.69097	401.56089	1090.18138	-98.46945	381.89256	1091.18993	-281.24123	
40	0.39000000	367.54594	601.02831	-73.73518	374.66332	447.81573	-89.39885	265.37897	98.70902	-125.59698	212.71513	78.02597	-192.54635	401.19356	37.98852	-94.38923	444.17934	62.84955	-142.41793	580.94314	646.23149	-377.71873	625.28010	449.05072	-363.11952	527.29355	150.98069	-348.08263	480.43553	125.35868	-272.99868	650.40764	57.97622	-405.57770	703.83567	89.86170	-358.82882	358.40752	337.10344	-105.47525	309.82267	449.26064	-49.17889	289.40090	337.93714	-57.41352	549.03583	461.37053	-405.33629	534.52347	346.08942	-387.06283	429.45833	887.54500	-25.28101	438.86466	776.27527	-35.49830	375.47108	749.42758	-28.38545	315.43910	882.97761	-44.13946	323.03932	766.88920	-45.63724	528.20027	938.81035	-380.38381	582.50409	816.28616	-380.86945	427.08952	900.43527	-391.15641	482.68885	775.39122	-395.30199	484.11837	1173.26312	-65.52370	288.87331	1202.54158	-140.62118	453.63174	1176.23159	-342.26637	278.96139	1202.93425	-233.15652	335.95759	1692.48356	-165.60046	415.51988	1633.39559	-1.11771	384.61066	1674.94783	-348.22718	478.61628	1603.69951	-153.31316	475.86018	1609.47042	-209.80500	391.08664	1363.53061	65.59628	292.97217	1253.00622	33.06976	308.04134	1274.46810	105.31836	437.53601	1100.71299	114.73320	490.88550	1020.64530	105.28277	462.70237	1010.92618	131.66643	371.06819	1382.81826	-422.83309	281.04956	1309.16368	-371.90403	298.91423	1307.37653	-447.41080	399.52884	1126.44889	-478.51723	437.53692	1055.79450	-471.86700	412.60720	1052.87378	-495.33112	404.10405	1077.12925	-100.77251	379.14591	1082.35623	-296.59532	410.98483	1089.44436	-98.30638	391.41293	1090.21999	-281.02514	
41	0.40000000	370.49891	600.81008	-73.55780	376.47058	447.61122	-89.13455	265.41903	98.88823	-125.63860	212.78300	78.24495	-192.62491	401.21444	37.97358	-94.30568	444.23644	62.73880	-142.35549	589.76821	643.94294	-376.45445	641.76936	448.95334	-361.99953	557.54709	146.40586	-348.07150	512.09463	118.40288	-272.99753	685.44628	59.21029	-405.52165	737.11620	93.55390	-358.68309	359.66833	336.95137	-105.28173	311.62173	449.34904	-48.98192	290.54747	338.14157	-57.29844	564.87258	457.73080	-404.39639	555.75407	341.85801	-386.31679	436.53282	886.58440	-25.25888	444.61024	775.17266	-35.66714	380.61983	749.07188	-28.11088	321.87216	883.49359	-43.33539	328.37420	766.66493	-45.28798	536.70391	936.61103	-379.38356	590.63458	813.94340	-379.26001	435.72407	898.66978	-390.78517	490.89868	773.35792	-394.28462	493.53191	1172.19506	-65.46077	298.51853	1201.57534	-140.69199	463.34092	1175.06906	-342.10835	288.66811	1201.82455	-233.21148	346.07740	1691.48353	-166.13241	425.55186	1632.50150	-1.58979	394.86951	1673.67407	-348.73317	488.30088	1602.56376	-153.61487	485.85798	1608.25781	-210.16540	401.32683	1362.80725	65.66199	303.39814	1251.98836	33.35797	318.37102	1273.71575	105.65140	449.19314	1100.93166	115.17123	502.99196	1021.32230	106.07150	475.02555	1011.44253	132.23233	381.23023	1381.42570	-422.88161	291.03933	1307.93914	-371.96905	308.99097	1306.00406	-447.44362	409.18831	1124.87691	-478.35966	446.70372	1053.96820	-471.42484	421.84718	1051.23816	-495.11189	413.58556	1076.08719	-100.66819	388.80600	1081.22781	-296.51577	420.39872	1088.61566	-98.13487	400.95232	1089.10835	-280.78297	
42	0.41000000	373.63321	600.52710	-73.39694	378.44102	447.35171	-88.89390	265.46058	99.08740	-125.69857	212.86168	78.46581	-192.71752	401.22679	37.92088	-94.24838	444.29410	62.62043	-142.30684	598.40223	641.35576	-375.19844	657.77540	448.86172	-360.70921	586.96572	142.60684	-347.89443	542.83397	112.33690	-272.83268	719.34963	61.14132	-404.99230	769.12542	97.85790	-358.02950	361.04790	336.76441	-105.09692	313.60872	449.41520	-48.79408	291.81494	338.33895	-57.20361	580.46660	454.14312	-403.50903	576.53769	337.89054	-385.53048	443.61761	885.55432	-25.18610	450.45277	774.01463	-35.81402	385.93065	748.64809	-27.84465	328.39054	883.91356	-42.47927	333.83884	766.34405	-44.93951	545.39416	934.24340	-378.35158	598.76649	811.36401	-377.54453	444.52286	896.82472	-390.50074	499.13096	771.18561	-393.38182	502.92704	1171.01056	-65.39241	308.22451	1200.47822	-140.80360	473.14904	1173.75509	-341.94778	298.43398	1200.56692	-233.31799	356.22149	1690.34833	-166.76162	435.60352	1631.47506	-2.13986	405.13327	1672.24749	-349.32727	498.02343	1601.28058	-153.98926	495.90825	1606.91042	-210.60117	411.53607	1361.95247	65.64451	313.77435	1250.85659	33.54861	328.65077	1272.84971	105.88149	460.72012	1100.99278	115.53759	514.86411	1021.83496	106.73205	487.10999	1011.82080	132.74730	391.44116	1379.87572	-423.01223	301.05367	1306.55987	-372.14004	319.12964	1304.46647	-447.55669	418.88323	1123.11566	-478.25347	456.10638	1052.01069	-471.19774	431.08866	1049.43742	-494.92450	423.08971	1074.92067	-100.56270	398.55049	1079.95047	-296.44331	429.85360	1087.67928	-97.94697	410.53252	1087.85530	-280.51755	
